<?xml version="1.0" encoding="UTF-8" standalone="no"?>
<!-- Created with Inkscape (http://www.inkscape.org/) -->

<svg
   width="32"
   height="32"
   viewBox="0 0 32 32"
   version="1.1"
   id="svg1"
   inkscape:version="1.4 (e7c3feb, 2024-10-09)"
   sodipodi:docname="logo.svg"
   xmlns:inkscape="http://www.inkscape.org/namespaces/inkscape"
   xmlns:sodipodi="http://sodipodi.sourceforge.net/DTD/sodipodi-0.dtd"
   xmlns="http://www.w3.org/2000/svg"
   xmlns:svg="http://www.w3.org/2000/svg">
  <sodipodi:namedview
     id="namedview1"
     pagecolor="#505050"
     bordercolor="#eeeeee"
     borderopacity="1"
     inkscape:showpageshadow="0"
     inkscape:pageopacity="0"
     inkscape:pagecheckerboard="0"
     inkscape:deskcolor="#505050"
     inkscape:document-units="px"
     inkscape:zoom="26.4375"
     inkscape:cx="15.981087"
     inkscape:cy="16"
     inkscape:window-width="1920"
     inkscape:window-height="1048"
     inkscape:window-x="0"
     inkscape:window-y="0"
     inkscape:window-maximized="1"
     inkscape:current-layer="layer1" />
  <defs
     id="defs1" />
  <g
     inkscape:label="Camada 1"
     inkscape:groupmode="layer"
     id="layer1">
    <text
       xml:space="preserve"
       style="font-size:18.6667px;font-family:Atma;-inkscape-font-specification:Atma;text-align:center;writing-mode:lr-tb;direction:ltr;text-anchor:middle;fill:none;stroke:#ffffff;stroke-width:0.2;stroke-linecap:round;stroke-dasharray:none"
       x="-14.570312"
       y="43.53125"
       id="text19"><tspan
         sodipodi:role="line"
         id="tspan19"
         x="-14.570312"
         y="43.53125" /></text>
    <g
       id="g60"
       transform="matrix(0.72727276,0,0,0.72727276,74.755683,-24.799717)"
       style="stroke-width:1.375">
      <path
         id="rect49"
         style="fill:#000000;stroke:none;stroke-width:0.275;stroke-linecap:round;stroke-dasharray:none"
         d="m -92.900391,40.099609 c -1.135801,0 -2.086131,0.124181 -2.851562,0.371094 -0.74074,0.246913 -1.3329,0.617502 -1.777344,1.111328 -0.444444,0.469136 -0.76536,1.048877 -0.962891,1.740235 -0.172838,0.691357 -0.259765,1.494623 -0.259765,2.408203 v 5.96289 c 0,0.395062 -0.06209,0.788533 -0.185547,1.183594 -0.09877,0.37037 -0.258247,0.716122 -0.480469,1.037109 -0.19753,0.296296 -0.458305,0.544657 -0.779301,0.742188 -0.32098,0.172839 -0.68962,0.257812 -1.10937,0.257812 h -1.48242 v 2.371094 h 1.51953 c 0.41975,0 0.77597,0.09934 1.07226,0.296875 0.320996,0.197531 0.581771,0.456357 0.779301,0.777344 0.222222,0.296296 0.381704,0.642048 0.480469,1.037109 0.123457,0.37037 0.185547,0.740959 0.185547,1.111328 v 5.962891 c 0,0.913579 0.08693,1.714893 0.259765,2.40625 0.197531,0.691357 0.518447,1.273052 0.962891,1.742188 0.444444,0.493826 1.036604,0.864414 1.777344,1.111328 0.765431,0.246913 1.715761,0.36914 2.851562,0.36914 H -92 h 2.099609 19.111329 2.111328 c 1.135801,0 2.08613,-0.12418 2.851562,-0.371093 0.74074,-0.246913 1.334853,-0.617503 1.779297,-1.111328 0.444445,-0.469137 0.765361,-1.048877 0.962891,-1.740235 0.172843,-0.691357 0.257812,-1.494623 0.257812,-2.408203 v -5.962891 c 0,-0.395062 0.06209,-0.788532 0.185547,-1.183593 0.09877,-0.37037 0.2602,-0.716123 0.482422,-1.03711 0.197531,-0.296296 0.456356,-0.544656 0.777344,-0.742187 0.320988,-0.172842 0.691575,-0.257813 1.111328,-0.257813 h 1.480469 v -2.371094 h -1.517579 c -0.419753,0 -0.777923,-0.09934 -1.074218,-0.296874 -0.320988,-0.197531 -0.579813,-0.456357 -0.777344,-0.777344 -0.222222,-0.296296 -0.383652,-0.642049 -0.482422,-1.03711 -0.123456,-0.37037 -0.185547,-0.740959 -0.185547,-1.111328 v -5.96289 c 0,-0.913579 -0.08497,-1.714893 -0.257812,-2.40625 -0.19753,-0.691357 -0.518446,-1.273052 -0.962891,-1.742188 -0.444444,-0.493826 -1.038557,-0.864414 -1.779297,-1.111328 -0.765431,-0.246913 -1.715761,-0.369141 -2.851562,-0.369141 H -70.789062 -89.900391 -92 Z" />
      <g
         id="g59"
         transform="translate(-0.70436137,0.00306283)"
         style="stroke-width:1.375">
        <g
           id="g48"
           transform="translate(-62)"
           style="stroke-width:1.375">
          <rect
             style="fill:#ffffff;stroke-width:1.375;stroke-linecap:round"
             id="rect42"
             width="4"
             height="2"
             x="-20"
             y="55"
             ry="1" />
          <rect
             style="fill:#ffffff;stroke-width:1.375;stroke-linecap:round"
             id="rect43"
             width="4"
             height="2"
             x="-20"
             y="61"
             ry="1" />
          <rect
             style="fill:#ffffff;stroke-width:1.375;stroke-linecap:round"
             id="rect44"
             width="4"
             height="2"
             x="-20"
             y="49"
             ry="1" />
          <rect
             style="fill:#ffffff;stroke-width:1.375;stroke-linecap:round"
             id="rect45"
             width="4"
             height="2"
             x="-32"
             y="55"
             ry="1" />
          <rect
             style="fill:#ffffff;stroke-width:1.375;stroke-linecap:round"
             id="rect46"
             width="4"
             height="2"
             x="-32"
             y="61"
             ry="1" />
          <rect
             style="fill:#ffffff;stroke-width:1.375;stroke-linecap:round"
             id="rect47"
             width="4"
             height="2"
             x="-26"
             y="55"
             ry="1" />
          <rect
             style="fill:#ffffff;stroke-width:1.375;stroke-linecap:round"
             id="rect48"
             width="4"
             height="2"
             x="-32"
             y="49"
             ry="1" />
          <path
             style="fill:none;stroke:#ffffff;stroke-width:0.275;stroke-linecap:round;stroke-dasharray:none"
             d="M -30,62 V 50 l 6,6 6,-6 v 12"
             id="path48" />
        </g>
        <g
           id="g55"
           transform="translate(-12)"
           style="stroke-width:1.375">
          <g
             id="g53"
             style="stroke-width:1.375">
            <rect
               style="fill:#ffffff;stroke-width:1.375;stroke-linecap:round"
               id="rect40"
               width="4"
               height="2"
               x="-60.930965"
               y="55.529552"
               ry="1" />
            <rect
               style="fill:#ffffff;stroke-width:1.375;stroke-linecap:round"
               id="rect51"
               width="4"
               height="2"
               x="-60.930965"
               y="61.193092"
               ry="1" />
          </g>
          <g
             id="g54"
             style="stroke-width:1.375">
            <rect
               style="fill:#ffffff;stroke-width:1.375;stroke-linecap:round"
               id="rect52"
               width="4"
               height="2"
               x="-63.926556"
               y="58.337917"
               ry="1" />
            <rect
               style="fill:#ffffff;stroke-width:1.375;stroke-linecap:round"
               id="rect53"
               width="4"
               height="2"
               x="-58.169399"
               y="58.337917"
               ry="1" />
          </g>
          <path
             style="fill:none;stroke:#ffffff;stroke-width:0.275;stroke-linecap:round;stroke-dasharray:none"
             d="m -58.930965,62.193092 2.761566,-2.855175 -2.761566,-2.808365 -2.995591,2.808365 z"
             id="path54" />
        </g>
      </g>
    </g>
  </g>
</svg>
